<?xml version="1.0" encoding="UTF-8" standalone="no"?>
<!-- Generator: Adobe Illustrator 19.0.0, SVG Export Plug-In . SVG Version: 6.00 Build 0)  -->

<svg
   version="1.1"
   id="Layer_1"
   x="0px"
   y="0px"
   viewBox="0 0 16 16"
   xml:space="preserve"
   sodipodi:docname="DebrisBody2D.svg"
   inkscape:version="1.2 (dc2aedaf03, 2022-05-15)"
   inkscape:export-filename="debris-body.svg"
   inkscape:export-xdpi="7.5559316"
   inkscape:export-ydpi="7.5559316"
   width="16"
   height="16"
   xmlns:inkscape="http://www.inkscape.org/namespaces/inkscape"
   xmlns:sodipodi="http://sodipodi.sourceforge.net/DTD/sodipodi-0.dtd"
   xmlns="http://www.w3.org/2000/svg"
   xmlns:svg="http://www.w3.org/2000/svg"><defs
   id="defs102" /><sodipodi:namedview
   id="namedview100"
   pagecolor="#ffffff"
   bordercolor="#666666"
   borderopacity="1.0"
   inkscape:showpageshadow="2"
   inkscape:pageopacity="0.0"
   inkscape:pagecheckerboard="0"
   inkscape:deskcolor="#d1d1d1"
   showgrid="false"
   inkscape:zoom="46.137742"
   inkscape:cx="7.1091472"
   inkscape:cy="7.8243968"
   inkscape:window-width="1920"
   inkscape:window-height="1009"
   inkscape:window-x="-8"
   inkscape:window-y="-8"
   inkscape:window-maximized="1"
   inkscape:current-layer="g63" />
<g
   id="g67">
	<g
   id="g65"
   style="fill:#8da5f3;fill-opacity:1;stroke:#8da5f3;stroke-width:12.8717;stroke-dasharray:none;stroke-opacity:1"
   transform="matrix(0.07389758,0,0,0.07781001,0.50913621,0.11379953)">
		<g
   id="g63"
   style="fill:#8da5f3;fill-opacity:1;stroke:#8da5f3;stroke-width:12.8717;stroke-dasharray:none;stroke-opacity:1">
			<path
   d="m 167.593,153.447 c 0,7.867 6.398,14.263 14.263,14.263 7.865,0 14.263,-6.397 14.263,-14.263 0,-7.866 -6.398,-14.263 -14.263,-14.263 -7.865,0 -14.263,6.396 -14.263,14.263 z m 14.263,-7.132 c 3.933,0 7.132,3.2 7.132,7.132 0,3.932 -3.199,7.132 -7.132,7.132 -3.933,0 -7.132,-3.2 -7.132,-7.132 0,-3.932 3.199,-7.132 7.132,-7.132 z"
   id="path53"
   style="fill:#8da5f3;fill-opacity:1;stroke:#a5b7f3;stroke-width:13.18764222;stroke-dasharray:none;stroke-opacity:1" />
			<path
   d="m 176.66213,79.514231 c 6.881,0 12.48,-5.599 12.48,-12.48 0,-6.881 -5.599,-12.48 -12.48,-12.48 -6.881,0 -12.48,5.599 -12.48,12.48 0,6.881 5.599,12.48 12.48,12.48 z m 0,-17.829 c 2.949,0 5.349,2.399 5.349,5.349 0,2.949 -2.399,5.349 -5.349,5.349 -2.95,0 -5.349,-2.399 -5.349,-5.349 0,-2.949 2.4,-5.349 5.349,-5.349 z"
   id="path55"
   style="fill:#8da5f3;fill-opacity:1;stroke:#a5b7f3;stroke-width:13.18764222;stroke-dasharray:none;stroke-opacity:1" />
			<path
   d="m 136.53504,56.22455 c 5.899,0 10.697,-4.799 10.697,-10.697 0,-5.899 -4.798,-10.697 -10.697,-10.697 -5.899,0 -10.697,4.799 -10.697,10.697 0,5.899 4.798,10.697 10.697,10.697 z m 0,-14.263 c 1.966,0 3.566,1.598 3.566,3.566 0,1.968 -1.6,3.566 -3.566,3.566 -1.966,0 -3.566,-1.598 -3.566,-3.566 0,-1.968 1.6,-3.566 3.566,-3.566 z"
   id="path57"
   style="fill:#8da5f3;fill-opacity:1;stroke:#a5b7f3;stroke-width:13.18764222;stroke-dasharray:none;stroke-opacity:1" />
			<path
   d="m 153.69188,120.24138 c 6.881,0 12.48,-5.599 12.48,-12.48 0,-6.881 -5.599,-12.479999 -12.48,-12.479999 -6.881,0 -12.48,5.598999 -12.48,12.479999 0,6.881 5.6,12.48 12.48,12.48 z m 0,-17.829 c 2.949,0 5.349,2.399 5.349,5.349 0,2.949 -2.399,5.349 -5.349,5.349 -2.949,0 -5.349,-2.399 -5.349,-5.349 0.001,-2.949 2.4,-5.349 5.349,-5.349 z"
   id="path59"
   style="fill:#8da5f3;fill-opacity:1;stroke:#a5b7f3;stroke-width:13.18764222;stroke-dasharray:none;stroke-opacity:1" />
			<path
   d="M 143.908,171.276 97.153,53.301 c -0.454,-1.149 -1.469,-1.978 -2.683,-2.197 -1.217,-0.216 -2.457,0.209 -3.282,1.125 L 83.339,60.942 62.785,26.606 c -0.726,-1.212 -2.107,-1.863 -3.494,-1.706 -1.4,0.171 -2.568,1.152 -2.977,2.504 L 12.676,171.276 H 0 v 7.132 h 203.284 v -7.132 z M 20.19,171.069 60.802,37.178 79.698,68.744 c 0.582,0.972 1.588,1.609 2.714,1.717 1.107,0.094 2.236,-0.32 2.995,-1.163 l 7.233,-8.027 43.516,109.798 H 20.19 Z"
   id="path61"
   style="fill:#a5b7f3;fill-opacity:1;stroke:#a5b7f3;stroke-width:13.18764222;stroke-dasharray:none;stroke-opacity:1" />
		</g>
	</g>
</g>
<g
   id="g69">
</g>
<g
   id="g71">
</g>
<g
   id="g73">
</g>
<g
   id="g75">
</g>
<g
   id="g77">
</g>
<g
   id="g79">
</g>
<g
   id="g81">
</g>
<g
   id="g83">
</g>
<g
   id="g85">
</g>
<g
   id="g87">
</g>
<g
   id="g89">
</g>
<g
   id="g91">
</g>
<g
   id="g93">
</g>
<g
   id="g95">
</g>
<g
   id="g97">
</g>
</svg>
